<svg width="17" height="17" viewBox="0 0 17 17" fill="none" xmlns="http://www.w3.org/2000/svg">
<g clip-path="url(#clip0_771_6)">
<path d="M14.4093 4.73825L8.90944 1.72768C8.72564 1.62652 8.51925 1.57348 8.30945 1.57348C8.09965 1.57348 7.89326 1.62652 7.70946 1.72768L2.20956 4.73825C2.01276 4.84593 1.84857 5.00459 1.7342 5.19758C1.61984 5.39057 1.55952 5.61078 1.55957 5.83511V11.8112C1.55952 12.0356 1.61984 12.2558 1.7342 12.4488C1.84857 12.6418 2.01276 12.8004 2.20956 12.9081L7.70946 15.9187C7.89322 16.0199 8.09963 16.0731 8.30945 16.0731C8.51927 16.0731 8.72567 16.0199 8.90944 15.9187L14.4093 12.9081C14.6061 12.8004 14.7703 12.6418 14.8847 12.4488C14.9991 12.2558 15.0594 12.0356 15.0593 11.8112V5.83511C15.0594 5.61078 14.9991 5.39057 14.8847 5.19758C14.7703 5.00459 14.6061 4.84593 14.4093 4.73825ZM8.30945 3.10891L12.8094 5.57324L8.30945 8.03569L3.80953 5.57324L8.30945 3.10891ZM3.05954 6.87259L7.55946 9.33504V14.1268L3.05954 11.6631V6.87259ZM9.05943 14.1268V9.33504L13.5594 6.87259V11.6631L9.05943 14.1268Z" fill="white"/>
</g>
<defs>
<clipPath id="clip0_771_6">
<rect width="15.9997" height="15.9997" fill="white" transform="translate(0.30957 0.823318)"/>
</clipPath>
</defs>
</svg>
