<svg width="19" height="18" viewBox="0 0 19 18" fill="none" xmlns="http://www.w3.org/2000/svg">
<g clip-path="url(#clip0_771_2)">
<path d="M16.4495 15.4279H15.047V2.52457H15.3275C15.5507 2.52457 15.7647 2.43591 15.9225 2.2781C16.0804 2.12028 16.169 1.90623 16.169 1.68305C16.169 1.45986 16.0804 1.24582 15.9225 1.088C15.7647 0.930185 15.5507 0.841524 15.3275 0.841524H2.98513C2.76195 0.841524 2.5479 0.930185 2.39009 1.088C2.23227 1.24582 2.14361 1.45986 2.14361 1.68305C2.14361 1.90623 2.23227 2.12028 2.39009 2.2781C2.5479 2.43591 2.76195 2.52457 2.98513 2.52457H3.26564V15.4279H1.8631C1.63991 15.4279 1.42587 15.5166 1.26805 15.6744C1.11024 15.8322 1.02158 16.0463 1.02158 16.2695C1.02158 16.4927 1.11024 16.7067 1.26805 16.8645C1.42587 17.0223 1.63991 17.111 1.8631 17.111H16.4495C16.6727 17.111 16.8868 17.0223 17.0446 16.8645C17.2024 16.7067 17.291 16.4927 17.291 16.2695C17.291 16.0463 17.2024 15.8322 17.0446 15.6744C16.8868 15.5166 16.6727 15.4279 16.4495 15.4279ZM4.94869 2.52457H13.3639V15.4279H11.6809V12.9034C11.6809 12.6802 11.5922 12.4661 11.4344 12.3083C11.2766 12.1505 11.0625 12.0619 10.8394 12.0619H7.47326C7.25008 12.0619 7.03603 12.1505 6.87822 12.3083C6.7204 12.4661 6.63174 12.6802 6.63174 12.9034V15.4279H4.94869V2.52457ZM9.99784 15.4279H8.31479V13.7449H9.99784V15.4279ZM6.07072 4.48813C6.07072 4.26494 6.15938 4.0509 6.3172 3.89308C6.47502 3.73527 6.68906 3.64661 6.91225 3.64661H7.75377C7.97696 3.64661 8.191 3.73527 8.34882 3.89308C8.50664 4.0509 8.5953 4.26494 8.5953 4.48813C8.5953 4.71132 8.50664 4.92536 8.34882 5.08318C8.191 5.24099 7.97696 5.32965 7.75377 5.32965H6.91225C6.68906 5.32965 6.47502 5.24099 6.3172 5.08318C6.15938 4.92536 6.07072 4.71132 6.07072 4.48813ZM9.71733 4.48813C9.71733 4.26494 9.80599 4.0509 9.96381 3.89308C10.1216 3.73527 10.3357 3.64661 10.5589 3.64661H11.4004C11.6236 3.64661 11.8376 3.73527 11.9954 3.89308C12.1532 4.0509 12.2419 4.26494 12.2419 4.48813C12.2419 4.71132 12.1532 4.92536 11.9954 5.08318C11.8376 5.24099 11.6236 5.32965 11.4004 5.32965H10.5589C10.3357 5.32965 10.1216 5.24099 9.96381 5.08318C9.80599 4.92536 9.71733 4.71132 9.71733 4.48813ZM6.07072 7.29321C6.07072 7.07003 6.15938 6.85598 6.3172 6.69816C6.47502 6.54035 6.68906 6.45169 6.91225 6.45169H7.75377C7.97696 6.45169 8.191 6.54035 8.34882 6.69816C8.50664 6.85598 8.5953 7.07003 8.5953 7.29321C8.5953 7.5164 8.50664 7.73044 8.34882 7.88826C8.191 8.04608 7.97696 8.13474 7.75377 8.13474H6.91225C6.68906 8.13474 6.47502 8.04608 6.3172 7.88826C6.15938 7.73044 6.07072 7.5164 6.07072 7.29321ZM9.71733 7.29321C9.71733 7.07003 9.80599 6.85598 9.96381 6.69816C10.1216 6.54035 10.3357 6.45169 10.5589 6.45169H11.4004C11.6236 6.45169 11.8376 6.54035 11.9954 6.69816C12.1532 6.85598 12.2419 7.07003 12.2419 7.29321C12.2419 7.5164 12.1532 7.73044 11.9954 7.88826C11.8376 8.04608 11.6236 8.13474 11.4004 8.13474H10.5589C10.3357 8.13474 10.1216 8.04608 9.96381 7.88826C9.80599 7.73044 9.71733 7.5164 9.71733 7.29321ZM6.07072 10.0983C6.07072 9.87511 6.15938 9.66106 6.3172 9.50325C6.47502 9.34543 6.68906 9.25677 6.91225 9.25677H7.75377C7.97696 9.25677 8.191 9.34543 8.34882 9.50325C8.50664 9.66106 8.5953 9.87511 8.5953 10.0983C8.5953 10.3215 8.50664 10.5355 8.34882 10.6933C8.191 10.8512 7.97696 10.9398 7.75377 10.9398H6.91225C6.68906 10.9398 6.47502 10.8512 6.3172 10.6933C6.15938 10.5355 6.07072 10.3215 6.07072 10.0983ZM9.71733 10.0983C9.71733 9.87511 9.80599 9.66106 9.96381 9.50325C10.1216 9.34543 10.3357 9.25677 10.5589 9.25677H11.4004C11.6236 9.25677 11.8376 9.34543 11.9954 9.50325C12.1532 9.66106 12.2419 9.87511 12.2419 10.0983C12.2419 10.3215 12.1532 10.5355 11.9954 10.6933C11.8376 10.8512 11.6236 10.9398 11.4004 10.9398H10.5589C10.3357 10.9398 10.1216 10.8512 9.96381 10.6933C9.80599 10.5355 9.71733 10.3215 9.71733 10.0983Z" fill="white"/>
</g>
<defs>
<clipPath id="clip0_771_2">
<rect width="17.9525" height="17.9525" fill="white" transform="translate(0.180084)"/>
</clipPath>
</defs>
</svg>
